# xmcd
#
# Track frame offsets:
#	150
#	20193
#	50408
#	67310
#	85760
#	114512
#	133971
#	164282
#	181782
#	199639
#
# Disc length: 3077 seconds
#
# Revision: 0
# Processed by: cddbd v1.5.2PL0 Copyright (c) Steve Scherf et al.
# Submitted via: VUPlayer 2.49
#
DISCID=8d0c030a
DTITLE=The Midnight Howlers - Howlin'
DYEAR=1999
DGENRE=Blues
TTITLE0=Bottom Dollar
TTITLE1=Hoochie Coochie Man
TTITLE2=Hand Jive
TTITLE3=Howlin'
TTITLE4=Settle Up (before I settle down)
TTITLE5=Home Grown
TTITLE6=Mustang Sally
TTITLE7=What Goes Around Comes Around
TTITLE8=Since I Ain't Got You
TTITLE9=Blues River Rising
EXTD=
EXTT0=
EXTT1=
EXTT2=
EXTT3=
EXTT4=
EXTT5=
EXTT6=
EXTT7=
EXTT8=
EXTT9=
PLAYORDER=
